<svg width="65" height="64" viewBox="0 0 65 64" fill="none" xmlns="http://www.w3.org/2000/svg">
<path fill-rule="evenodd" clip-rule="evenodd" d="M11.8182 0C5.29118 0 0 5.20977 0 11.6364V52.3636C0 58.7901 5.29118 64 11.8182 64H53.1818C59.7087 64 65 58.7901 65 52.3636V11.6364C65 5.20977 59.7087 0 53.1818 0H11.8182ZM54.6591 24H45.7955V19.6364H54.6591V24ZM31.0227 31.2727H22.1591V26.9091H31.0227V31.2727ZM31.0227 38.5455H22.1591V34.1818H31.0227V38.5455ZM19.2045 47.2727H10.3409V42.9091H19.2045V47.2727ZM22.1591 47.2727H31.0227V42.9091H22.1591V47.2727ZM33.9773 47.2727H42.8409V42.9091H33.9773V47.2727ZM45.7955 47.2727H54.6591V42.9091H45.7955V47.2727ZM45.7955 38.5455H54.6591V34.1818H45.7955V38.5455ZM33.9773 38.5455H42.8409V34.1818H33.9773V38.5455ZM45.7955 31.2727H54.6591V26.9091H45.7955V31.2727Z" fill="#E6E6E6"/>
</svg>
