<svg width="24" height="24" viewBox="0 0 24 24" fill="none" xmlns="http://www.w3.org/2000/svg">
<g clip-path="url(#clip0_13_42)">
<path d="M23.25 20.41L21.39 1.34998C21.3652 1.03242 21.2406 0.730842 21.0341 0.488369C20.8275 0.245896 20.5496 0.0749491 20.24 -2.29888e-05C19.9374 -0.0735219 19.6193 -0.0503492 19.3305 0.0662386C19.0418 0.182826 18.7968 0.386969 18.63 0.649977L15.11 6.23998C15.079 6.28386 15.0624 6.33626 15.0624 6.38998C15.0624 6.4437 15.079 6.4961 15.11 6.53998C15.4871 6.93525 15.7887 7.39617 16 7.89998C16.0153 7.9416 16.0424 7.97791 16.0778 8.00452C16.1133 8.03114 16.1557 8.04692 16.2 8.04998C16.2463 8.05586 16.2933 8.04868 16.3357 8.02924C16.3781 8.0098 16.4142 7.97888 16.44 7.93998L19.19 3.60998C19.2167 3.56455 19.2576 3.52916 19.3064 3.50928C19.3552 3.4894 19.4092 3.48613 19.46 3.49998C19.5107 3.51227 19.5562 3.54008 19.5903 3.57952C19.6243 3.61897 19.6452 3.66808 19.65 3.71998L21.27 20.39C21.2765 20.4257 21.2744 20.4624 21.264 20.4972C21.2536 20.5319 21.2351 20.5637 21.21 20.59C20.73 21.08 18.59 22 14.79 22C11.4 22 9.32 21.27 8.58 20.78C8.52658 20.7434 8.48943 20.6875 8.47637 20.6241C8.46331 20.5607 8.47537 20.4947 8.51 20.44L12.36 14.37C12.3819 14.3301 12.3934 14.2854 12.3934 14.24C12.3934 14.1945 12.3819 14.1498 12.36 14.11C12.336 14.0682 12.3008 14.0339 12.2584 14.011C12.216 13.988 12.1681 13.9773 12.12 13.98H11.78C11.36 13.9819 10.9421 13.9212 10.54 13.8C10.4877 13.787 10.4326 13.7907 10.3825 13.8104C10.3323 13.8301 10.2895 13.8649 10.26 13.91L6.41 20C6.30603 20.1609 6.2505 20.3484 6.25 20.54C6.25 22.95 10.66 24.04 14.75 24.04C18.84 24.04 23.25 22.95 23.25 20.54V20.41Z" fill="#282828"/>
<path d="M14.25 18.25C14.25 18.3163 14.2236 18.3799 14.1767 18.4268C14.1299 18.4737 14.0663 18.5 14 18.5H13.5C13.2347 18.5 12.9804 18.6054 12.7929 18.7929C12.6053 18.9804 12.5 19.2348 12.5 19.5C12.5 19.7652 12.6053 20.0196 12.7929 20.2071C12.9804 20.3946 13.2347 20.5 13.5 20.5H16.5C16.7652 20.5 17.0195 20.3946 17.2071 20.2071C17.3946 20.0196 17.5 19.7652 17.5 19.5C17.5 19.2348 17.3946 18.9804 17.2071 18.7929C17.0195 18.6054 16.7652 18.5 16.5 18.5C16.4337 18.5 16.3701 18.4737 16.3232 18.4268C16.2763 18.3799 16.25 18.3163 16.25 18.25V16.15C16.2473 16.1071 16.2572 16.0644 16.2785 16.027C16.2998 15.9897 16.3316 15.9595 16.37 15.94C16.4061 15.9179 16.4476 15.9062 16.49 15.9062C16.5323 15.9062 16.5738 15.9179 16.61 15.94C16.9127 16.0733 17.2524 16.0967 17.5706 16.0063C17.8888 15.9158 18.1653 15.7171 18.3526 15.4444C18.5399 15.1718 18.6262 14.8423 18.5965 14.5129C18.5668 14.1835 18.423 13.8747 18.19 13.64L15.87 11.3L14.78 10.21C14.7521 10.1812 14.7313 10.1464 14.7192 10.1082C14.7071 10.07 14.7039 10.0296 14.71 9.99C14.7252 9.82702 14.7252 9.66298 14.71 9.5C14.71 8.90666 14.534 8.32664 14.2044 7.83329C13.8747 7.33994 13.4062 6.95543 12.858 6.72836C12.3098 6.5013 11.7066 6.44189 11.1247 6.55765C10.5427 6.6734 10.0082 6.95912 9.58864 7.37868C9.16908 7.79824 8.88336 8.33279 8.76761 8.91473C8.65185 9.49667 8.71126 10.0999 8.93832 10.6481C9.16539 11.1962 9.5499 11.6648 10.0433 11.9944C10.5366 12.3241 11.1166 12.5 11.71 12.5C12.0498 12.5013 12.3875 12.4473 12.71 12.34C12.7529 12.324 12.7996 12.3211 12.8441 12.3318C12.8887 12.3425 12.929 12.3662 12.96 12.4L14.17 13.61C14.1932 13.6316 14.2115 13.658 14.2236 13.6873C14.2357 13.7167 14.2412 13.7483 14.24 13.78L14.25 18.25Z" fill="#282828"/>
<path d="M4.00001 11C4.12021 11.0009 4.23655 10.9576 4.32689 10.8783C4.41724 10.799 4.47529 10.6893 4.49001 10.57L4.55001 10.17C4.62824 9.63556 4.87678 9.14062 5.25871 8.75869C5.64063 8.37676 6.13558 8.12822 6.67001 8.04999L7.07001 7.99999C7.18551 7.97678 7.28942 7.91429 7.36407 7.82314C7.43872 7.73199 7.47951 7.61781 7.47951 7.49999C7.47951 7.38218 7.43872 7.26799 7.36407 7.17685C7.28942 7.0857 7.18551 7.02321 7.07001 6.99999H6.67001C6.12827 6.91915 5.62785 6.66331 5.24508 6.27152C4.86231 5.87972 4.61821 5.37347 4.55001 4.82999L4.49001 4.42999C4.49001 4.29738 4.43733 4.17021 4.34356 4.07644C4.24979 3.98267 4.12262 3.92999 3.99001 3.92999C3.8574 3.92999 3.73022 3.98267 3.63646 4.07644C3.54269 4.17021 3.49001 4.29738 3.49001 4.42999L3.43001 4.82999C3.36286 5.37059 3.12167 5.87466 2.74284 6.26612C2.36401 6.65758 1.86811 6.91516 1.33001 6.99999H0.930009C0.814504 7.02321 0.710598 7.0857 0.635948 7.17685C0.561298 7.26799 0.520508 7.38218 0.520508 7.49999C0.520508 7.61781 0.561298 7.73199 0.635948 7.82314C0.710598 7.91429 0.814504 7.97678 0.930009 7.99999L1.33001 8.04999C1.86444 8.12822 2.35938 8.37676 2.74131 8.75869C3.12324 9.14062 3.37178 9.63556 3.45001 10.17L3.51001 10.57C3.52472 10.6893 3.58278 10.799 3.67312 10.8783C3.76347 10.9576 3.87981 11.0009 4.00001 11Z" fill="#282828"/>
<path d="M9.18007 2.99995H9.44007C9.76537 3.04894 10.066 3.20215 10.2968 3.43656C10.5276 3.67097 10.6761 3.97393 10.7201 4.29995V4.56995C10.7433 4.68545 10.8058 4.78936 10.8969 4.86401C10.9881 4.93866 11.1023 4.97945 11.2201 4.97945C11.3379 4.97945 11.4521 4.93866 11.5432 4.86401C11.6344 4.78936 11.6969 4.68545 11.7201 4.56995V4.29995C11.767 3.96508 11.9243 3.65542 12.167 3.41997C12.4097 3.18452 12.7239 3.03672 13.0601 2.99995H13.3201C13.4394 2.98523 13.5491 2.92718 13.6284 2.83683C13.7077 2.74649 13.751 2.63015 13.7501 2.50995C13.7492 2.38919 13.7055 2.27266 13.6268 2.1811C13.548 2.08954 13.4393 2.02889 13.3201 2.00995H13.0601C12.7312 1.96152 12.4274 1.8059 12.196 1.56723C11.9646 1.32857 11.8184 1.02019 11.7801 0.689948V0.429948C11.7569 0.314442 11.6944 0.210537 11.6032 0.135887C11.5121 0.0612372 11.3979 0.0204468 11.2801 0.0204468C11.1623 0.0204468 11.0481 0.0612372 10.9569 0.135887C10.8658 0.210537 10.8033 0.314442 10.7801 0.429948V0.689948C10.7369 1.02731 10.5811 1.34021 10.3379 1.57796C10.0947 1.81572 9.77832 1.96441 9.44007 1.99995H9.18007C9.0608 2.01889 8.95212 2.07954 8.87338 2.1711C8.79464 2.26266 8.75094 2.37919 8.75007 2.49995C8.74667 2.62185 8.78885 2.74065 8.86837 2.83311C8.94789 2.92557 9.05903 2.98506 9.18007 2.99995Z" fill="#282828"/>
</g>
<defs>
<clipPath id="clip0_13_42">
<rect width="24" height="24" fill="white"/>
</clipPath>
</defs>
</svg>
