<svg width="24" height="24" viewBox="0 0 24 24" fill="none" xmlns="http://www.w3.org/2000/svg">
<g clip-path="url(#clip0_13_36)">
<path d="M18 0C17.7348 0 17.4804 0.105357 17.2929 0.292893C17.1054 0.48043 17 0.734784 17 1V16.13C16.9996 16.1712 16.9895 16.2118 16.9703 16.2483C16.9512 16.2848 16.9237 16.3162 16.89 16.34C16.8529 16.3593 16.8118 16.3693 16.77 16.3693C16.7282 16.3693 16.6871 16.3593 16.65 16.34C16.1292 16.1145 15.5675 15.9988 15 16C13.9391 16 12.9217 16.4214 12.1716 17.1716C11.4214 17.9217 11 18.9391 11 20C11 21.0609 11.4214 22.0783 12.1716 22.8284C12.9217 23.5786 13.9391 24 15 24C16.0521 23.9722 17.0534 23.5418 17.7976 22.7976C18.5418 22.0534 18.9722 21.0521 19 20V2.46C19.0011 2.42089 19.0113 2.38257 19.0299 2.34813C19.0485 2.31369 19.0749 2.2841 19.107 2.26172C19.1391 2.23935 19.176 2.22482 19.2147 2.21931C19.2534 2.2138 19.2929 2.21746 19.33 2.23C20.1103 2.5051 20.7861 3.0154 21.2643 3.69058C21.7425 4.36577 21.9995 5.17263 22 6C22.001 6.7271 21.8002 7.44021 21.42 8.06C21.3265 8.17133 21.2585 8.30169 21.2206 8.44201C21.1826 8.58233 21.1758 8.72924 21.2004 8.87249C21.225 9.01574 21.2806 9.15189 21.3633 9.27147C21.4459 9.39105 21.5536 9.49117 21.6789 9.56487C21.8042 9.63857 21.944 9.68407 22.0887 9.6982C22.2334 9.71233 22.3794 9.69475 22.5166 9.6467C22.6537 9.59864 22.7788 9.52125 22.883 9.41992C22.9872 9.3186 23.0681 9.19577 23.12 9.06C23.6897 8.14056 23.9942 7.08159 24 6C24 4.4087 23.3679 2.88258 22.2426 1.75736C21.1174 0.632141 19.5913 0 18 0Z" fill="#282828"/>
<path d="M1 4H12C12.2652 4 12.5196 3.89464 12.7071 3.70711C12.8946 3.51957 13 3.26522 13 3C13 2.73478 12.8946 2.48043 12.7071 2.29289C12.5196 2.10536 12.2652 2 12 2H1C0.734784 2 0.48043 2.10536 0.292893 2.29289C0.105357 2.48043 0 2.73478 0 3C0 3.26522 0.105357 3.51957 0.292893 3.70711C0.48043 3.89464 0.734784 4 1 4Z" fill="#282828"/>
<path d="M1 9H12C12.2652 9 12.5196 8.89464 12.7071 8.70711C12.8946 8.51957 13 8.26522 13 8C13 7.73478 12.8946 7.48043 12.7071 7.29289C12.5196 7.10536 12.2652 7 12 7H1C0.734784 7 0.48043 7.10536 0.292893 7.29289C0.105357 7.48043 0 7.73478 0 8C0 8.26522 0.105357 8.51957 0.292893 8.70711C0.48043 8.89464 0.734784 9 1 9Z" fill="#282828"/>
<path d="M13 13C13 12.7348 12.8946 12.4804 12.7071 12.2929C12.5196 12.1054 12.2652 12 12 12H1C0.734784 12 0.48043 12.1054 0.292893 12.2929C0.105357 12.4804 0 12.7348 0 13C0 13.2652 0.105357 13.5196 0.292893 13.7071C0.48043 13.8946 0.734784 14 1 14H12C12.2652 14 12.5196 13.8946 12.7071 13.7071C12.8946 13.5196 13 13.2652 13 13Z" fill="#282828"/>
</g>
<defs>
<clipPath id="clip0_13_36">
<rect width="24" height="24" fill="white"/>
</clipPath>
</defs>
</svg>
