<svg width="55" height="55" viewBox="0 0 55 55" fill="none" xmlns="http://www.w3.org/2000/svg">
<path fill-rule="evenodd" clip-rule="evenodd" d="M27.1875 54.375C12.1723 54.375 0 42.2027 0 27.1875C0 12.1723 12.1723 0 27.1875 0C42.2027 0 54.375 12.1723 54.375 27.1875C54.375 42.2027 42.2027 54.375 27.1875 54.375ZM29.1639 14.0428C23.757 13.5419 18.0098 14.3076 12.9164 16.5659C11.6962 17.1067 11.1455 18.5345 11.6865 19.7546C12.2275 20.9747 13.6551 21.5254 14.8753 20.9844C19.1309 19.0976 24.0379 18.4219 28.718 18.8554C33.4278 19.2918 37.9701 20.8578 41.4224 23.5133C42.4803 24.327 43.9976 24.1291 44.8114 23.0712C45.6251 22.0133 45.4272 20.496 44.3693 19.6822C40.0523 16.3616 34.5889 14.5452 29.1639 14.0428ZM14.4593 26.0978C18.6592 24.1091 23.4343 23.433 27.9095 23.855C32.2862 24.2678 36.7119 25.7657 40.2114 28.5233C41.2598 29.3494 41.4399 30.8689 40.6138 31.9173C39.7876 32.9655 38.2682 33.1457 37.2198 32.3197C34.5891 30.2465 31.0986 29.0106 27.4556 28.667C23.7416 28.3167 19.8526 28.8919 16.5278 30.4662C15.3215 31.0374 13.8806 30.5226 13.3094 29.3163C12.7383 28.1101 13.253 26.6691 14.4593 26.0978ZM26.6589 33.7219C23.3554 33.4006 19.8298 33.8936 16.6948 35.3648C15.4866 35.9317 14.9667 37.3709 15.5336 38.5791C16.1007 39.7874 17.5398 40.3072 18.748 39.7403C21.0156 38.6762 23.6575 38.2862 26.1909 38.5325C28.7449 38.781 31.1656 39.6739 32.9702 41.1435C34.0053 41.9862 35.5274 41.8304 36.3701 40.7955C37.2129 39.7604 37.057 38.2383 36.0221 37.3955C33.3476 35.2177 29.9752 34.0444 26.6589 33.7219Z" fill="#1ED760"/>
</svg>
