<svg width="24" height="24" viewBox="0 0 24 24" fill="none" xmlns="http://www.w3.org/2000/svg">
<g clip-path="url(#clip0_13_28)">
<path d="M22.92 11H15.5C15.3674 11 15.2402 11.0527 15.1464 11.1464C15.0527 11.2402 15 11.3674 15 11.5V11.91C15.0013 12.3153 14.9226 12.7169 14.7684 13.0917C14.6142 13.4666 14.3876 13.8073 14.1014 14.0944C13.8153 14.3814 13.4753 14.6092 13.101 14.7646C12.7266 14.92 12.3253 15 11.92 15H11.5C11.3674 15 11.2402 15.0527 11.1464 15.1464C11.0527 15.2402 11 15.3674 11 15.5V22.91C11 23.1974 11.1135 23.4731 11.3157 23.6772C11.518 23.8814 11.7927 23.9974 12.08 24H22.92C23.2073 23.9974 23.482 23.8814 23.6843 23.6772C23.8865 23.4731 24 23.1974 24 22.91V12.08C24 11.7936 23.8862 11.5189 23.6837 11.3163C23.4811 11.1138 23.2064 11 22.92 11ZM20.76 22.2C20.666 22.2415 20.5643 22.263 20.4616 22.2631C20.3588 22.2631 20.2571 22.2418 20.163 22.2004C20.0689 22.159 19.9845 22.0985 19.9151 22.0226C19.8457 21.9468 19.7929 21.8574 19.76 21.76L19.25 20.41C19.232 20.3634 19.2005 20.3233 19.1595 20.2948C19.1185 20.2662 19.0699 20.2506 19.02 20.25H15.94C15.8901 20.2506 15.8415 20.2662 15.8005 20.2948C15.7595 20.3233 15.728 20.3634 15.71 20.41L15.2 21.76C15.1699 21.858 15.12 21.9488 15.0534 22.0267C14.9868 22.1046 14.905 22.1681 14.8129 22.2132C14.7209 22.2583 14.6205 22.284 14.5181 22.2888C14.4157 22.2936 14.3134 22.2773 14.2176 22.241C14.1217 22.2047 14.0343 22.1492 13.9607 22.0778C13.8872 22.0064 13.829 21.9207 13.7899 21.8259C13.7508 21.7312 13.7315 21.6294 13.7332 21.5269C13.735 21.4244 13.7577 21.3234 13.8 21.23L16.33 14.48C16.4195 14.242 16.5794 14.037 16.7885 13.8923C16.9975 13.7475 17.2457 13.67 17.5 13.67C17.7543 13.67 18.0025 13.7475 18.2115 13.8923C18.4206 14.037 18.5805 14.242 18.67 14.48L21.2 21.23C21.2352 21.3225 21.2518 21.4211 21.2487 21.5201C21.2456 21.6191 21.223 21.7165 21.1821 21.8067C21.1412 21.8969 21.0828 21.978 21.0104 22.0455C20.9379 22.1131 20.8528 22.1656 20.76 22.2Z" fill="#282828"/>
<path d="M16.46 18.41C16.4408 18.4453 16.4307 18.4848 16.4307 18.525C16.4307 18.5652 16.4408 18.6047 16.46 18.64C16.4809 18.6741 16.5103 18.7023 16.5454 18.7216C16.5805 18.7408 16.62 18.7506 16.66 18.75H18.28C18.32 18.7506 18.3595 18.7408 18.3946 18.7216C18.4297 18.7023 18.4591 18.6741 18.48 18.64C18.4993 18.6047 18.5094 18.5652 18.5094 18.525C18.5094 18.4848 18.4993 18.4453 18.48 18.41L17.67 16.26C17.6508 16.2149 17.6188 16.1764 17.5779 16.1494C17.537 16.1224 17.489 16.108 17.44 16.108C17.391 16.108 17.3431 16.1224 17.3022 16.1494C17.2613 16.1764 17.2292 16.2149 17.21 16.26L16.46 18.41Z" fill="#282828"/>
<path d="M7.78002 5.61002C7.80016 5.57323 7.81071 5.53196 7.81071 5.49002C7.81071 5.44808 7.80016 5.40681 7.78002 5.37002C7.75716 5.33243 7.72477 5.30154 7.68615 5.28047C7.64752 5.2594 7.60401 5.24889 7.56002 5.25002H5.45002C5.40604 5.24889 5.36253 5.2594 5.3239 5.28047C5.28527 5.30154 5.25289 5.33243 5.23002 5.37002C5.20989 5.40681 5.19934 5.44808 5.19934 5.49002C5.19934 5.53196 5.20989 5.57323 5.23002 5.61002C5.52051 6.2056 5.88324 6.76313 6.31002 7.27002C6.33349 7.29747 6.36263 7.3195 6.39543 7.33461C6.42823 7.34972 6.46391 7.35754 6.50002 7.35754C6.53614 7.35754 6.57182 7.34972 6.60462 7.33461C6.63742 7.3195 6.66655 7.29747 6.69002 7.27002C7.12031 6.76367 7.48642 6.20612 7.78002 5.61002Z" fill="#282828"/>
<path d="M11.92 13C12.0627 13 12.2039 12.9717 12.3356 12.9168C12.4673 12.8619 12.5868 12.7815 12.6872 12.6801C12.7877 12.5788 12.867 12.4586 12.9207 12.3264C12.9744 12.1942 13.0013 12.0527 13 11.91V1.08C13 0.793566 12.8862 0.518864 12.6837 0.316325C12.4811 0.113785 12.2064 0 11.92 0H1.08C0.793566 0 0.518864 0.113785 0.316325 0.316325C0.113785 0.518864 9.66638e-10 0.793566 9.66637e-10 1.08L9.66638e-10 11.91C-1.20926e-05 12.1974 0.113453 12.4731 0.31571 12.6772C0.517967 12.8814 0.79265 12.9974 1.08 13H11.92ZM10.72 10.69C10.6798 10.8504 10.587 10.9926 10.4565 11.0941C10.326 11.1956 10.1653 11.2505 10 11.25C8.78098 10.9754 7.63729 10.436 6.65 9.67C6.60743 9.63592 6.55453 9.61735 6.5 9.61735C6.44547 9.61735 6.39257 9.63592 6.35 9.67C5.36323 10.4368 4.21934 10.9763 3 11.25C2.81336 11.2576 2.63059 11.1953 2.48746 11.0753C2.34433 10.9553 2.25114 10.7862 2.22613 10.6011C2.20111 10.416 2.24607 10.2282 2.35221 10.0745C2.45835 9.92075 2.61803 9.81218 2.8 9.77C3.64786 9.54366 4.44983 9.17144 5.17 8.67C5.19931 8.65202 5.22376 8.62711 5.2412 8.59747C5.25864 8.56783 5.26853 8.53436 5.27 8.5C5.29372 8.43544 5.29372 8.36456 5.27 8.3C4.52189 7.44844 3.93256 6.46961 3.53 5.41C3.51203 5.36341 3.48051 5.32327 3.43952 5.29475C3.39853 5.26624 3.34993 5.25065 3.3 5.25H2.53C2.33109 5.25 2.14032 5.17098 1.99967 5.03033C1.85902 4.88968 1.78 4.69891 1.78 4.5C1.78 4.30109 1.85902 4.11032 1.99967 3.96967C2.14032 3.82902 2.33109 3.75 2.53 3.75H5.53C5.5963 3.75 5.65989 3.72366 5.70678 3.67678C5.75366 3.62989 5.78 3.5663 5.78 3.5V2.5C5.78 2.30109 5.85902 2.11032 5.99967 1.96967C6.14032 1.82902 6.33109 1.75 6.53 1.75C6.72891 1.75 6.91968 1.82902 7.06033 1.96967C7.20098 2.11032 7.28 2.30109 7.28 2.5V3.5C7.28 3.5663 7.30634 3.62989 7.35322 3.67678C7.40011 3.72366 7.4637 3.75 7.53 3.75H10.53C10.7289 3.75 10.9197 3.82902 11.0603 3.96967C11.201 4.11032 11.28 4.30109 11.28 4.5C11.28 4.69891 11.201 4.88968 11.0603 5.03033C10.9197 5.17098 10.7289 5.25 10.53 5.25H9.7C9.65007 5.25065 9.60147 5.26624 9.56048 5.29475C9.51949 5.32327 9.48797 5.36341 9.47 5.41C9.08258 6.46596 8.51032 7.44455 7.78 8.3C7.75628 8.36456 7.75628 8.43544 7.78 8.5C7.78147 8.53436 7.79136 8.56783 7.8088 8.59747C7.82624 8.62711 7.85069 8.65202 7.88 8.67C8.60017 9.17144 9.40214 9.54366 10.25 9.77C10.4313 9.83389 10.5812 9.96497 10.6687 10.1362C10.7561 10.3074 10.7745 10.5056 10.72 10.69Z" fill="#282828"/>
<path d="M17.65 5.35001C17.7186 5.42038 17.8067 5.4685 17.903 5.48812C17.9993 5.50773 18.0993 5.49794 18.19 5.46001C18.2813 5.4225 18.3594 5.3588 18.4146 5.27694C18.4698 5.19508 18.4995 5.09872 18.5 5.00001V4.69001C18.4999 4.64655 18.5111 4.60382 18.5325 4.56601C18.5539 4.52821 18.5849 4.49665 18.6222 4.47444C18.6596 4.45223 18.7021 4.44014 18.7455 4.43936C18.789 4.43859 18.8319 4.44915 18.87 4.47001C19.5121 4.80957 20.0496 5.31755 20.4248 5.93945C20.8001 6.56134 20.9989 7.27367 21 8.00001C21 8.26522 21.1053 8.51958 21.2929 8.70711C21.4804 8.89465 21.7348 9.00001 22 9.00001C22.2652 9.00001 22.5195 8.89465 22.7071 8.70711C22.8946 8.51958 23 8.26522 23 8.00001C22.9978 6.7035 22.5757 5.44257 21.797 4.40601C21.0182 3.36945 19.9246 2.61303 18.68 2.25001C18.6272 2.23296 18.5813 2.19951 18.549 2.15454C18.5166 2.10956 18.4994 2.05542 18.5 2.00001V1.00001C18.5006 0.901293 18.4719 0.804616 18.4176 0.72216C18.3633 0.639705 18.2859 0.57516 18.195 0.536662C18.1041 0.498163 18.0038 0.487433 17.9068 0.505824C17.8098 0.524216 17.7205 0.570905 17.65 0.640008L15.65 2.64001C15.6031 2.68649 15.5659 2.74179 15.5405 2.80272C15.5151 2.86365 15.5021 2.929 15.5021 2.99501C15.5021 3.06101 15.5151 3.12637 15.5405 3.1873C15.5659 3.24823 15.6031 3.30353 15.65 3.35001L17.65 5.35001Z" fill="#282828"/>
<path d="M2 14C1.73478 14 1.48043 14.1054 1.29289 14.2929C1.10536 14.4804 1 14.7348 1 15C1.00216 16.2965 1.42422 17.5574 2.203 18.594C2.98177 19.6306 4.07535 20.387 5.32 20.75C5.37361 20.7656 5.42046 20.7987 5.45308 20.844C5.4857 20.8893 5.50222 20.9442 5.5 21V22C5.50049 22.0987 5.53019 22.1951 5.58536 22.2769C5.64053 22.3588 5.71869 22.4225 5.81 22.46C5.90066 22.4979 6.00063 22.5077 6.09693 22.4881C6.19323 22.4685 6.2814 22.4204 6.35 22.35L8.35 20.35C8.39686 20.3035 8.43406 20.2482 8.45945 20.1873C8.48483 20.1264 8.4979 20.061 8.4979 19.995C8.4979 19.929 8.48483 19.8636 8.45945 19.8027C8.43406 19.7418 8.39686 19.6865 8.35 19.64L6.35 17.64C6.2795 17.5709 6.19013 17.5242 6.09314 17.5058C5.99616 17.4874 5.89589 17.4982 5.80499 17.5367C5.7141 17.5752 5.63663 17.6397 5.58235 17.7222C5.52807 17.8046 5.49942 17.9013 5.5 18V18.31C5.50038 18.3525 5.48947 18.3943 5.46839 18.4312C5.4473 18.4681 5.4168 18.4988 5.38 18.52C5.342 18.5419 5.29888 18.5535 5.255 18.5535C5.21112 18.5535 5.168 18.5419 5.13 18.52C4.48942 18.1812 3.95289 17.6748 3.57774 17.0548C3.20259 16.4349 3.0029 15.7246 3 15C3 14.7348 2.89464 14.4804 2.70711 14.2929C2.51957 14.1054 2.26522 14 2 14Z" fill="#282828"/>
</g>
<defs>
<clipPath id="clip0_13_28">
<rect width="24" height="24" fill="white"/>
</clipPath>
</defs>
</svg>
