<svg width="24" height="24" viewBox="0 0 24 24" fill="none" xmlns="http://www.w3.org/2000/svg">
<g clip-path="url(#clip0_13_48)">
<path d="M14.5 10.5H18.75C18.8163 10.5 18.8799 10.4737 18.9268 10.4268C18.9737 10.3799 19 10.3163 19 10.25V5.5C18.9974 4.30734 18.5224 3.16428 17.6791 2.32094C16.8357 1.4776 15.6927 1.00264 14.5 1H4.5C3.30734 1.00264 2.16428 1.4776 1.32094 2.32094C0.477596 3.16428 0.00264157 4.30734 0 5.5L0 9.5C0.00264157 10.6927 0.477596 11.8357 1.32094 12.6791C2.16428 13.5224 3.30734 13.9974 4.5 14H5V17.5C4.99929 17.6016 5.02952 17.701 5.08669 17.7849C5.14385 17.8689 5.22523 17.9334 5.32 17.97C5.41689 18.0033 5.52135 18.0078 5.62073 17.9829C5.72012 17.9581 5.81017 17.905 5.88 17.83L9.15 14.09C9.17323 14.0621 9.20227 14.0396 9.23508 14.0241C9.26789 14.0085 9.30369 14.0003 9.34 14H10.34C10.3982 13.9984 10.454 13.9766 10.4978 13.9382C10.5416 13.8999 10.5707 13.8475 10.58 13.79C10.7459 12.8699 11.2289 12.0371 11.945 11.4361C12.6611 10.8351 13.5651 10.5039 14.5 10.5Z" fill="#282828"/>
<path d="M24 14.5C24 14.1717 23.9353 13.8466 23.8097 13.5433C23.6841 13.24 23.4999 12.9644 23.2678 12.7322C23.0356 12.5001 22.76 12.3159 22.4567 12.1903C22.1534 12.0647 21.8283 12 21.5 12H14.5C13.837 12 13.2011 12.2634 12.7322 12.7322C12.2634 13.2011 12 13.837 12 14.5V17.5C12 18.163 12.2634 18.7989 12.7322 19.2678C13.2011 19.7366 13.837 20 14.5 20H16.29L19.15 22.85C19.2178 22.9216 19.306 22.9705 19.4026 22.9902C19.4993 23.0099 19.5996 22.9993 19.69 22.96C19.7813 22.9225 19.8595 22.8588 19.9146 22.7769C19.9698 22.6951 19.9995 22.5987 20 22.5V20H21.5C21.8283 20 22.1534 19.9353 22.4567 19.8097C22.76 19.6841 23.0356 19.4999 23.2678 19.2678C23.4999 19.0356 23.6841 18.76 23.8097 18.4567C23.9353 18.1534 24 17.8283 24 17.5V14.5Z" fill="#282828"/>
</g>
<defs>
<clipPath id="clip0_13_48">
<rect width="24" height="24" fill="white"/>
</clipPath>
</defs>
</svg>
