<svg width="24" height="24" viewBox="0 0 24 24" fill="none" xmlns="http://www.w3.org/2000/svg">
<g clip-path="url(#clip0_13_26)">
<path d="M14.83 3.21002C13.83 2.57002 13.38 1.91002 13.38 1.21002C13.38 0.878501 13.2483 0.560559 13.0139 0.326138C12.7795 0.091718 12.4615 -0.039978 12.13 -0.039978C11.7985 -0.039978 11.4805 0.091718 11.2461 0.326138C11.0117 0.560559 10.88 0.878501 10.88 1.21002V15.71C10.88 15.7763 10.8537 15.8399 10.8068 15.8868C10.7599 15.9337 10.6963 15.96 10.63 15.96H9.38C8.31914 15.96 7.30172 16.3815 6.55158 17.1316C5.80143 17.8817 5.38 18.8992 5.38 19.96C5.38 21.0209 5.80143 22.0383 6.55158 22.7885C7.30172 23.5386 8.31914 23.96 9.38 23.96C10.4321 23.9322 11.4334 23.5019 12.1776 22.7577C12.9219 22.0135 13.3522 21.0121 13.38 19.96V5.73002C13.3783 5.68349 13.3908 5.63755 13.4158 5.59826C13.4408 5.55898 13.4771 5.52821 13.52 5.51002C13.5583 5.48379 13.6036 5.46976 13.65 5.46976C13.6964 5.46976 13.7417 5.48379 13.78 5.51002C17.2 7.98002 16.21 10.51 15.08 13.51C14.69 14.51 15.01 15.16 15.68 15.42C16.35 15.68 17.01 15.42 17.41 14.42C18.57 11.4 20.31 6.87002 14.83 3.21002Z" fill="#282828"/>
</g>
<defs>
<clipPath id="clip0_13_26">
<rect width="24" height="24" fill="white"/>
</clipPath>
</defs>
</svg>
